<svg width="24" height="24" viewBox="0 0 24 24" fill="none" xmlns="http://www.w3.org/2000/svg">
<g clip-path="url(#clip0_3_41)">
<path d="M2.7644 5.95163H4.7644L5.1644 7.95163M5.1644 7.95163H20.7644L16.7644 15.9516H6.7644M5.1644 7.95163L6.7644 15.9516M6.7644 15.9516L4.4714 18.2446C3.8414 18.8746 4.2874 19.9516 5.1784 19.9516H16.7644M16.7644 19.9516C16.234 19.9516 15.7253 20.1623 15.3502 20.5374C14.9751 20.9125 14.7644 21.4212 14.7644 21.9516C14.7644 22.4821 14.9751 22.9908 15.3502 23.3658C15.7253 23.7409 16.234 23.9516 16.7644 23.9516C17.2948 23.9516 17.8035 23.7409 18.1786 23.3658C18.5537 22.9908 18.7644 22.4821 18.7644 21.9516C18.7644 21.4212 18.5537 20.9125 18.1786 20.5374C17.8035 20.1623 17.2948 19.9516 16.7644 19.9516ZM8.7644 21.9516C8.7644 22.4821 8.55369 22.9908 8.17862 23.3658C7.80354 23.7409 7.29484 23.9516 6.7644 23.9516C6.23397 23.9516 5.72526 23.7409 5.35019 23.3658C4.97512 22.9908 4.7644 22.4821 4.7644 21.9516C4.7644 21.4212 4.97512 20.9125 5.35019 20.5374C5.72526 20.1623 6.23397 19.9516 6.7644 19.9516C7.29484 19.9516 7.80354 20.1623 8.17862 20.5374C8.55369 20.9125 8.7644 21.4212 8.7644 21.9516Z" stroke="black" stroke-width="2" stroke-linecap="round" stroke-linejoin="round"/>
</g>
<defs>
<clipPath id="clip0_3_41">
<rect width="24" height="24" fill="white"/>
</clipPath>
</defs>
</svg>
